<svg xmlns="http://www.w3.org/2000/svg" width="269.5" height="198.462" viewBox="0 0 269.5 198.462">
  <g id="Group_4" data-name="Group 4" transform="translate(0.01 0.02)">
    <path id="Path_267" data-name="Path 267" d="M63.3,476c4.264,18.227,13.292,33.983,27.559,41.62,29.649,15.871,96.517,7.686,146.422-1.72a114.277,114.277,0,0,0,64.983-37.149Z" transform="translate(-60.397 -370.399)" fill="#6c63ff" opacity="0.1"/>
    <path id="Path_268" data-name="Path 268" d="M346.174,65.861H318.792a2.367,2.367,0,0,1,0-4.734h4.734a2.367,2.367,0,1,1,0-4.734h-3.38a2.367,2.367,0,0,1,0-4.734h14.292a37.818,37.818,0,0,0-11.147-3.073c-38.969-5.006-52.883-1.695-57.791,1.72a54.573,54.573,0,0,1-20.03,8.779c-24.044,4.96-69.009,10.929-109.765-1.911-20.256-6.387-35.312,4.4-44.334,22.423H350.927a42.3,42.3,0,0,0-3.215-14.306,2.353,2.353,0,0,1-1.538.57Z" transform="translate(-81.571 -46.05)" fill="#6c63ff" opacity="0.1"/>
    <path id="Path_269" data-name="Path 269" d="M52.03,321.15a120.627,120.627,0,0,0,1.061,31.8L293.5,361.741a113,113,0,0,0,16.7-25.474Zm95.085,22.685h-4.734a2.367,2.367,0,1,1,0,4.734H115a2.367,2.367,0,1,1,0-4.734h4.734a2.367,2.367,0,1,1,0-4.734h-3.38a2.367,2.367,0,0,1,0-4.734h27.382a2.367,2.367,0,1,1,0,4.734h3.38a2.367,2.367,0,1,1,0,4.734Z" transform="translate(-51.45 -253.588)" fill="#6c63ff" opacity="0.1"/>
    <path id="Path_270" data-name="Path 270" d="M322.749,183.34,60.279,189.727A104.821,104.821,0,0,0,54,216.829H318.151a112.126,112.126,0,0,0,3.815-17.276A81.869,81.869,0,0,0,322.749,183.34ZM107.286,204.259h-4.734a2.367,2.367,0,0,1,0,4.734H75.17a2.367,2.367,0,0,1,0-4.734H79.9a2.367,2.367,0,1,1,0-4.734h-3.38a2.367,2.367,0,1,1,0-4.734h27.382a2.367,2.367,0,1,1,0,4.734h3.38a2.367,2.367,0,1,1,0,4.734Z" transform="translate(-53.381 -149.63)" fill="#6c63ff" opacity="0.1"/>
    <g id="Group_2" data-name="Group 2" transform="translate(164.787 99.19)" opacity="0.1">
      <path id="Path_271" data-name="Path 271" d="M729,535.183s6.927-17.072,19.863-23.405a27.918,27.918,0,0,0,12.678-12.295,46.945,46.945,0,0,0,3.176-7.984" transform="translate(-727.357 -481.281)" fill="none" stroke="#535461" stroke-width="2"/>
      <path id="Path_272" data-name="Path 272" d="M881.917,456.079c-1.349,1.695-8.327,4.176-8.327,4.176s.84-7.369,2.189-9.052a3.93,3.93,0,0,1,6.141,4.883Z" transform="translate(-836.429 -449.901)" fill="#6c63ff"/>
      <path id="Path_273" data-name="Path 273" d="M869.316,506.47c-2.054.69-9.256-1.027-9.256-1.027s4.7-5.719,6.758-6.409a3.93,3.93,0,0,1,2.5,7.436Z" transform="translate(-826.223 -486.865)" fill="#6c63ff"/>
      <path id="Path_274" data-name="Path 274" d="M821.933,570.565c-2.12-.44-7.473-5.559-7.473-5.559s6.947-2.562,9.069-2.122a3.93,3.93,0,0,1-1.6,7.679Z" transform="translate(-791.824 -535.092)" fill="#6c63ff"/>
      <path id="Path_275" data-name="Path 275" d="M768.375,610.113c-2.164-.076-8.305-4.215-8.305-4.215s6.416-3.692,8.58-3.623a3.93,3.93,0,1,1-.275,7.839Z" transform="translate(-750.795 -564.843)" fill="#6c63ff"/>
      <path id="Path_276" data-name="Path 276" d="M832.736,493.172c.278,2.149,4.967,7.878,4.967,7.878s3.088-6.731,2.813-8.88a3.93,3.93,0,0,0-7.78,1Z" transform="translate(-805.605 -479.392)" fill="#6c63ff"/>
      <path id="Path_277" data-name="Path 277" d="M772.243,535.579c.906,1.965,7.1,6.031,7.1,6.031s.934-7.347.027-9.312a3.93,3.93,0,1,0-7.124,3.284Z" transform="translate(-759.62 -510.158)" fill="#6c63ff"/>
      <path id="Path_278" data-name="Path 278" d="M722.388,592.912c.56,2.093,5.977,7.143,5.977,7.143s2.162-7.082,1.6-9.175a3.93,3.93,0,0,0-7.576,2.032Z" transform="translate(-722.312 -554.24)" fill="#6c63ff"/>
      <path id="Path_279" data-name="Path 279" d="M881.917,456.079c-1.349,1.695-8.327,4.176-8.327,4.176s.84-7.369,2.189-9.052a3.93,3.93,0,0,1,6.141,4.883Z" transform="translate(-836.429 -449.901)" opacity="0.25"/>
      <path id="Path_280" data-name="Path 280" d="M869.316,506.47c-2.054.69-9.256-1.027-9.256-1.027s4.7-5.719,6.758-6.409a3.93,3.93,0,0,1,2.5,7.436Z" transform="translate(-826.223 -486.865)" opacity="0.25"/>
      <path id="Path_281" data-name="Path 281" d="M821.933,570.565c-2.12-.44-7.473-5.559-7.473-5.559s6.947-2.562,9.069-2.122a3.93,3.93,0,0,1-1.6,7.679Z" transform="translate(-791.824 -535.092)" opacity="0.25"/>
      <path id="Path_282" data-name="Path 282" d="M768.375,610.113c-2.164-.076-8.305-4.215-8.305-4.215s6.416-3.692,8.58-3.623a3.93,3.93,0,1,1-.275,7.839Z" transform="translate(-750.795 -564.843)" opacity="0.25"/>
      <path id="Path_283" data-name="Path 283" d="M832.736,493.172c.278,2.149,4.967,7.878,4.967,7.878s3.088-6.731,2.813-8.88a3.93,3.93,0,0,0-7.78,1Z" transform="translate(-805.605 -479.392)" opacity="0.25"/>
      <path id="Path_284" data-name="Path 284" d="M772.243,535.579c.906,1.965,7.1,6.031,7.1,6.031s.934-7.347.027-9.312a3.93,3.93,0,1,0-7.124,3.284Z" transform="translate(-759.62 -510.158)" opacity="0.25"/>
      <path id="Path_285" data-name="Path 285" d="M722.388,592.912c.56,2.093,5.977,7.143,5.977,7.143s2.162-7.082,1.6-9.175a3.93,3.93,0,0,0-7.576,2.032Z" transform="translate(-722.312 -554.24)" opacity="0.25"/>
    </g>
    <g id="Group_3" data-name="Group 3" transform="translate(154.459 63.093)" opacity="0.1">
      <path id="Path_286" data-name="Path 286" d="M709,404.785s.875-18.4,10.978-28.669a27.917,27.917,0,0,0,7.861-15.807,46.951,46.951,0,0,0,.351-8.578" transform="translate(-701.941 -339.749)" fill="none" stroke="#535461" stroke-width="2"/>
      <path id="Path_287" data-name="Path 287" d="M789.7,308.431c-.71,2.046-6.473,6.7-6.473,6.7s-1.646-7.22-.936-9.266a3.93,3.93,0,1,1,7.409,2.569Z" transform="translate(-757.097 -302.957)" fill="#6c63ff"/>
      <path id="Path_288" data-name="Path 288" d="M794.014,357.955c-1.719,1.331-9.074,2.1-9.074,2.1s2.542-6.957,4.25-8.288a3.93,3.93,0,1,1,4.825,6.185Z" transform="translate(-759.227 -339.03)" fill="#6c63ff"/>
      <path id="Path_289" data-name="Path 289" d="M766.122,434.408c-2.147.287-8.892-2.766-8.892-2.766s5.706-4.721,7.861-5.009a3.93,3.93,0,1,1,1.042,7.775Z" transform="translate(-738.324 -396.195)" fill="#6c63ff"/>
      <path id="Path_290" data-name="Path 290" d="M730.184,489.7c-2.068.646-9.234-1.228-9.234-1.228s4.825-5.618,6.893-6.264a3.93,3.93,0,0,1,2.341,7.487Z" transform="translate(-710.956 -438.087)" fill="#6c63ff"/>
      <path id="Path_291" data-name="Path 291" d="M751.743,362.419c.983,1.936,7.3,5.785,7.3,5.785s.68-7.369-.292-9.31a3.93,3.93,0,0,0-7.008,3.525Z" transform="translate(-733.947 -343.686)" fill="#6c63ff"/>
      <path id="Path_292" data-name="Path 292" d="M709.817,423.618c1.508,1.555,8.7,3.336,8.7,3.336s-1.555-7.239-3.063-8.794a3.93,3.93,0,0,0-5.633,5.461Z" transform="translate(-701.847 -389.089)" fill="#6c63ff"/>
      <path id="Path_293" data-name="Path 293" d="M680.792,493.2c1.228,1.788,8.008,4.758,8.008,4.758s-.31-7.4-1.533-9.187a3.93,3.93,0,0,0-6.473,4.422Z" transform="translate(-680.265 -442.012)" fill="#6c63ff"/>
    </g>
    <path id="Path_294" data-name="Path 294" d="M351.19,791.252c9.659,3.247,21.442,1.272,32.4,1.5a11.167,11.167,0,0,1,4.291.685,9.8,9.8,0,0,1,2.621,2.248c3.071,2.9,9.362,3.827,14.862,3.336s10.543-2.117,15.721-3.355c8.971-2.142,19.227-3.115,28.075-.781a7.315,7.315,0,0,0,2.538.376c1.941-.192,2.518-1.744,3.874-2.631,2.456-1.6,7.77-1.167,8.843-3.277.631-1.228-.82-2.506-2.4-3.351-6.048-3.233-14.7-3.766-22.614-3.267s-15.7,1.874-23.653,1.879c-9.912,0-19.49-2.11-29.306-2.975-6.8-.6-14.22-.526-20.6,1.228C358.957,784.789,357.434,789.073,351.19,791.252Z" transform="translate(-277.568 -600.704)" fill="#6c63ff" opacity="0.1"/>
    <rect id="Rectangle_1964" data-name="Rectangle 1964" width="1.72" height="24.319" transform="translate(89.779 45.405)" fill="#535461"/>
    <rect id="Rectangle_1965" data-name="Rectangle 1965" width="1.72" height="13.756" transform="translate(89.779 78.076)" fill="#535461"/>
    <rect id="Rectangle_1966" data-name="Rectangle 1966" width="77.379" height="168.022" rx="38.689" transform="translate(91.007 21.577)" fill="#535461"/>
    <rect id="Rectangle_1967" data-name="Rectangle 1967" width="77.379" height="153.038" rx="38.689" transform="translate(91.007 29.438)" fill="#6c63ff"/>
    <rect id="Rectangle_1968" data-name="Rectangle 1968" width="12.774" height="1.72" rx="0.86" transform="translate(123.432 25.262)" fill="#eaeaf3"/>
    <circle id="Ellipse_14" data-name="Ellipse 14" cx="1.228" cy="1.228" r="1.228" transform="translate(139.399 25.017)" fill="#eaeaf3"/>
    <path id="Path_295" data-name="Path 295" d="M470.354,360.124v17.932a4.242,4.242,0,0,1-4.257,4.289,4.627,4.627,0,0,1-4.667-4.289V360.124a4.619,4.619,0,0,1,4.667-4.257A4.274,4.274,0,0,1,470.354,360.124Zm1.673,24.3a4.572,4.572,0,0,0,4.581,4.581h3.08l.047,9.46c0,5.711,8.546,5.667,8.546,0v-9.457h5.758v9.46c0,5.682,8.6,5.7,8.6,0v-9.46h3.127a4.567,4.567,0,0,0,4.552-4.581V356.648H472.027Zm38.392-29.274H471.853a17.388,17.388,0,0,1,9.846-15.387l-2.948-5.466c-.432-.759.666-1.228,1.037-.587l3,5.512a20.914,20.914,0,0,1,16.765,0l2.987-5.5a.6.6,0,1,1,1.037.587l-2.948,5.448A17.447,17.447,0,0,1,510.419,355.154Zm-26.427-8.6a1.595,1.595,0,1,0-1.626,1.624,1.626,1.626,0,0,0,1.626-1.624Zm17.556,0a1.6,1.6,0,1,0-1.58,1.626,1.6,1.6,0,0,0,1.58-1.626Zm14.675,9.305a4.245,4.245,0,0,0-4.257,4.257v17.932a4.272,4.272,0,0,0,4.257,4.289,4.616,4.616,0,0,0,4.667-4.289V360.119a4.6,4.6,0,0,0-4.667-4.252Z" transform="translate(-360.727 -262.838)" fill="#fff"/>
    <rect id="Rectangle_1969" data-name="Rectangle 1969" width="15.967" height="0.737" transform="translate(111.518 139.871)" fill="#535461"/>
    <rect id="Rectangle_1970" data-name="Rectangle 1970" width="10.563" height="0.737" transform="translate(133.381 139.871)" fill="#535461"/>
    <rect id="Rectangle_1971" data-name="Rectangle 1971" width="10.563" height="0.737" transform="translate(97.517 139.871)" fill="#535461"/>
    <rect id="Rectangle_1972" data-name="Rectangle 1972" width="10.563" height="0.737" transform="translate(150.085 139.871)" fill="#535461"/>
  </g>
</svg>
