<svg xmlns="http://www.w3.org/2000/svg" width="211.849" height="171.043" viewBox="0 0 211.849 171.043">
  <g id="Group_6" data-name="Group 6" transform="translate(-231.222 -124.997)">
    <path id="Path_80" data-name="Path 80" d="M697.216,124.767H633.625a13.518,13.518,0,0,0-13.188,10.546L588.306,277.834a10.926,10.926,0,0,0,10.121,13.315L663.8,294.37a14.434,14.434,0,0,0,14.914-11.848l18.228-100.764,1.356.387,3.489-19.1-1.4-.349,5.088-28.127a8.323,8.323,0,0,0-8.259-9.805Z" transform="translate(-262.54 0.231)" fill="#3f3d56"/>
    <path id="Path_81" data-name="Path 81" d="M659.9,136.4h-7.422a9.342,9.342,0,0,0-9.128,7.351L612.509,285.1a5.788,5.788,0,0,0,5.278,7.01l65.16,4.271a7.5,7.5,0,0,0,7.869-6.152l26.318-146.108a6.567,6.567,0,0,0-6.462-7.73H703.63a3.1,3.1,0,0,0-2.993,2.293h0a2.736,2.736,0,0,1-2.643,2.025H664.565A4.678,4.678,0,0,1,659.9,136.4Z" transform="translate(-280.446 -8.325)" fill="#fff"/>
    <path id="Path_93" data-name="Path 93" d="M737.438,283.827a.529.529,0,0,0,.538-.433l14.41-79.529a.534.534,0,0,0-.11-.431.519.519,0,0,0-.4-.193l-65.559-.774h-.006a.525.525,0,0,0-.509.413l-16.987,76.947a.534.534,0,0,0,.094.436.519.519,0,0,0,.389.207Z" transform="translate(-321.962 -56.935)" fill="#e6e6e6"/>
    <path id="Path_94" data-name="Path 94" d="M710.785,529.535a.264.264,0,0,0-.257.2l-.614,2.631a.264.264,0,0,0,.238.324l34.682,2.465a.267.267,0,0,0,.278-.213l.59-3.044a.264.264,0,0,0-.244-.314L710.8,529.535Z" transform="translate(-352.2 -297.501)" fill="#e6e6e6"/>
    <path id="Path_95" data-name="Path 95" d="M748.611,569.222a.264.264,0,0,0,.278-.2l.752-3.051a.264.264,0,0,0-.238-.327l-44.292-3.1a.261.261,0,0,0-.272.188l-.781,2.636a.264.264,0,0,0,.232.338Z" transform="translate(-347.889 -321.79)" fill="#e6e6e6"/>
    <path id="Path_96" data-name="Path 96" d="M739.611,606.222a.264.264,0,0,0,.278-.2l.752-3.051a.264.264,0,0,0-.238-.327l-44.292-3.1a.261.261,0,0,0-.272.188l-.781,2.636a.264.264,0,0,0,.232.338Z" transform="translate(-341.268 -349.012)" fill="#e6e6e6"/>
    <path id="Path_79" data-name="Path 79" d="M257.427,738.573c0,2.212-20.246,2.447-45.164,4-24.9,1.556-45.164-1.793-45.164-4s20.363-6.662,45.164-4C237.181,737.239,257.427,736.362,257.427,738.573Z" transform="translate(64.123 -446.937)" fill="#e6e6e6"/>
    <path id="Path_97" data-name="Path 97" d="M710.748,662.751a.261.261,0,0,0,.281-.2l1.589-6.356a.264.264,0,0,0-.234-.328l-27.2-2.288a.269.269,0,0,0-.28.206l-1.356,6.1a.264.264,0,0,0,.233.321Z" transform="translate(-332.804 -388.824)" fill="#6c63ff"/>
    <path id="Path_111" data-name="Path 111" d="M302.606,490.037a2.839,2.839,0,0,0,.418-4.334l1.1-24.584-5.607.629.326,24.046a2.854,2.854,0,0,0,3.762,4.241Z" transform="translate(-34.487 -242.011)" fill="#a0616a"/>
    <path id="Path_112" data-name="Path 112" d="M69.534,540.7l3.191.561,3.154-12.042-4.181-.828Z" transform="translate(208.814 -251.061)" fill="#a0616a"/>
    <path id="Path_113" data-name="Path 113" d="M0,0H10.183V3.934H3.934A3.934,3.934,0,0,1,0,0Z" transform="translate(287.173 294.246) rotate(-170.029)" fill="#2f2e41"/>
    <path id="Path_114" data-name="Path 114" d="M36.391,546.22h3.24l1.541-12.5H36.39Z" transform="translate(233.198 -254.982)" fill="#a0616a"/>
    <path id="Path_115" data-name="Path 115" d="M0,0H10.183V3.934H3.934A3.934,3.934,0,0,1,0,0H0Z" transform="translate(279.077 294.246) rotate(179.997)" fill="#2f2e41"/>
    <path id="Path_116" data-name="Path 116" d="M332.262,599.725a1.227,1.227,0,0,1-.151-.009L328.3,599.4a1.29,1.29,0,0,1-1.121-1.5l3.786-18.68-2.379-12.547a.43.43,0,0,0-.851.042l-3.5,31.88a1.3,1.3,0,0,1-1.377,1.173l-3.593-.134a1.292,1.292,0,0,1-1.2-1.224l.287-38.525,18.627-2.328,1.3,20.1-.005.021-4.755,21.057A1.291,1.291,0,0,1,332.262,599.725Z" transform="translate(-49.155 -312.967)" fill="#2f2e41"/>
    <circle id="Ellipse_16" data-name="Ellipse 16" cx="6.491" cy="6.491" r="6.491" transform="translate(268.842 190.196)" fill="#a0616a"/>
    <path id="Path_117" data-name="Path 117" d="M319.412,454.338a5.316,5.316,0,0,1-2.869-.821c-3.145-1.965-6.716-1.184-8.565-.544a1.29,1.29,0,0,1-1.116-.127,1.271,1.271,0,0,1-.588-.939l-3.362-30.03a10.523,10.523,0,0,1,7.207-11.248h0q.267-.084.543-.159a10.458,10.458,0,0,1,8.714,1.513,10.624,10.624,0,0,1,4.537,7.758l2.831,30.231a1.271,1.271,0,0,1-.4,1.059C325.348,451.949,322.468,454.338,319.412,454.338Z" transform="translate(-37.963 -204.481)" fill="#6c63ff"/>
    <path id="Path_118" data-name="Path 118" d="M301.928,440.582l-7.585-.834a1.511,1.511,0,0,1-1.3-1.885l1.931-7.359a4.2,4.2,0,1,1,8.34.942l.287,7.578a1.511,1.511,0,0,1-1.675,1.559Z" transform="translate(-30.717 -216.745)" fill="#6c63ff"/>
    <path id="Path_119" data-name="Path 119" d="M372.359,486.133a2.839,2.839,0,0,0-.107-4.352l-1.869-24.537-5.494,1.237,3.224,23.9a2.854,2.854,0,0,0,4.245,3.757Z" transform="translate(-83.608 -239.16)" fill="#a0616a"/>
    <path id="Path_120" data-name="Path 120" d="M355.578,435.849a1.509,1.509,0,0,1-.48-1.163l.287-7.578a4.2,4.2,0,0,1,8.34-.942l1.931,7.359a1.511,1.511,0,0,1-1.3,1.885l-7.585.834a1.51,1.51,0,0,1-1.195-.4Z" transform="translate(-76.405 -213.555)" fill="#6c63ff"/>
    <path id="Path_121" data-name="Path 121" d="M319.422,358.972a1.5,1.5,0,0,1-.344-.04l-.033-.008c-5.707-.872-6.969-4.179-7.245-5.559a3.446,3.446,0,0,1,.777-3.345,4.115,4.115,0,0,1,.192-3.346,5.421,5.421,0,0,1,3.2-2.29,3.962,3.962,0,0,1,3.865-.233c3.1-1.146,4.281-.192,4.5.021,1.384.249,2.228.783,2.508,1.59.526,1.515-1.138,3.4-1.209,3.478l-.037.041-2.479.118a1.68,1.68,0,0,0-1.581,1.934h0a7.818,7.818,0,0,0,.254.887c.423,1.323.74,2.453.331,2.883a.663.663,0,0,1-.694.12c-.388-.1-.651-.082-.782.065-.2.227-.141.8.175,1.619a1.517,1.517,0,0,1-.276,1.545,1.472,1.472,0,0,1-1.117.52Z" transform="translate(-44.475 -155.549)" fill="#2f2e41"/>
  </g>
</svg>
