<svg xmlns="http://www.w3.org/2000/svg" width="210.654" height="190.674" viewBox="0 0 210.654 190.674">
  <g id="Group_1" data-name="Group 1" transform="translate(0)">
    <path id="Path_237" data-name="Path 237" d="M738.427,247.714a2.77,2.77,0,0,0,3.062,2.355,2.655,2.655,0,0,0,.429-.094l5.772,7.748,4.962-1.546-9.055-9.759a2.762,2.762,0,0,0-2.893-1.732,2.643,2.643,0,0,0-2.288,2.956C738.42,247.667,738.423,247.691,738.427,247.714Z" transform="translate(-590.935 -211.843)" fill="#a0616a"/>
    <path id="Path_238" data-name="Path 238" d="M788.362,293.706s-21.554-10.059-27.006-16.484l-9.77-12.131,4.955-4.053,9.183,10.578c-.084,2.223,10.77,4.5,16.605,7.741Z" transform="translate(-600.11 -223.229)" fill="#e6e6e6"/>
    <path id="Path_239" data-name="Path 239" d="M621.5,572.794h-4.227l-2.011-16.307h6.24Z" transform="translate(-427.948 -387.067)" fill="#a0616a"/>
    <path id="Path_240" data-name="Path 240" d="M860.575,745.332h-13v-.164a5.061,5.061,0,0,1,5.06-5.06h0l2.375-1.8,4.431,1.8h1.135Z" transform="translate(-666.875 -555.195)" fill="#2f2e41"/>
    <path id="Path_241" data-name="Path 241" d="M580.3,561.517l-4.117.96-5.664-15.424,6.076-1.417Z" transform="translate(-396.828 -379.52)" fill="#a0616a"/>
    <path id="Path_242" data-name="Path 242" d="M831.135,735.9l-12.661,2.954-.037-.16a5.061,5.061,0,0,1,3.778-6.078h0l1.9-2.294,4.724.748,1.105-.258Z" transform="translate(-646.516 -549.642)" fill="#2f2e41"/>
    <path id="Path_243" data-name="Path 243" d="M430.033,297.646H312.355a9.722,9.722,0,0,1-2.2-.279,9.836,9.836,0,0,1-7.538-9.594v-40a9.879,9.879,0,0,1,9.873-9.864H430.033a9.745,9.745,0,0,1,4.55,1.114,9.457,9.457,0,0,1,1.578,1.029,9.764,9.764,0,0,1,3.746,7.721v40A9.884,9.884,0,0,1,430.033,297.646Z" transform="translate(-287.825 -207.143)" fill="#f2f2f2"/>
    <path id="Path_244" data-name="Path 244" d="M695.235,343.123q8.014-19.479,16.886-38.573v21.582A104.846,104.846,0,0,1,698.2,343.123Z" transform="translate(-560.915 -253.494)" fill="#6c63ff"/>
    <path id="Path_245" data-name="Path 245" d="M659.054,245.051Q643.2,273.5,625.868,301.087h-2.011q17.616-28.018,33.764-56.972a8.6,8.6,0,0,1,1.434.936Z" transform="translate(-511.267 -211.458)" fill="#6c63ff"/>
    <path id="Path_246" data-name="Path 246" d="M405.079,314.906a356.531,356.531,0,0,1-22.832,35.329H370.258q11.779-14.35,23.576-28.7c2.256-2.755,4.7-5.64,8.089-6.76Z" transform="translate(-334.875 -260.607)" fill="#6c63ff"/>
    <path id="Path_247" data-name="Path 247" d="M383.587,299.676c-1.251,1.3-2.449,2.658-3.577,4.066-2.483,2.991-4.932,6.008-7.389,9.016-1.53,1.871-3.061,3.743-4.573,5.614a11.165,11.165,0,0,1-1.364-1.032,12.235,12.235,0,1,1,15.637-18.821A11.285,11.285,0,0,1,383.587,299.676Z" transform="translate(-329.316 -247.335)" fill="#fff"/>
    <path id="Path_248" data-name="Path 248" d="M427.42,293.552l-22.981-8.4-11.412-4.171c-3.717-1.355-7.424-2.9-11.263-3.883a17.757,17.757,0,0,0-10.2.131,23.442,23.442,0,0,0-7.949,4.932q-1.522,1.4-2.947,2.895c-1.251,1.3-2.449,2.658-3.577,4.066-2.484,2.991-4.932,6.008-7.389,9.016-1.53,1.871-3.061,3.743-4.573,5.614q-7.582,9.274-15.076,18.591a8.76,8.76,0,0,1-1.994-.254q7.818-9.707,15.706-19.37c.6-.752,1.224-1.513,1.836-2.265q3.843-4.709,7.7-9.409c1.985-2.422,3.953-4.862,6.1-7.144.192-.21.385-.411.586-.621,4.364-4.512,9.812-8.5,16.335-8.6,3.839-.061,7.547,1.154,11.115,2.44,3.839,1.39,7.669,2.807,11.508,4.215l23.139,8.465,5.789,2.116C428.9,292.275,428.461,293.937,427.42,293.552Z" transform="translate(-305.526 -232.711)" fill="#6c63ff"/>
    <path id="Path_249" data-name="Path 249" d="M254.645,222.308V198.3a2.83,2.83,0,0,1,2.828-2.825H288.59v-.609H257.473a3.439,3.439,0,0,0-3.437,3.434v24.013Z" transform="translate(-254.036 -177.2)" fill="#3f3d56"/>
    <path id="Path_250" data-name="Path 250" d="M256.805,413.775a2.818,2.818,0,0,1-2.16-2.749v-24.01h-.609v24.01a3.424,3.424,0,0,0,2.625,3.34,3.381,3.381,0,0,0,.767.1h31.163v-.609H257.432A2.778,2.778,0,0,1,256.805,413.775Z" transform="translate(-254.037 -310.854)" fill="#3f3d56"/>
    <path id="Path_251" data-name="Path 251" d="M643.482,387.016v24.01a2.832,2.832,0,0,1-2.828,2.828H609.536v.609h31.117a3.441,3.441,0,0,0,3.437-3.437v-24.01Z" transform="translate(-501.306 -310.854)" fill="#3f3d56"/>
    <path id="Path_252" data-name="Path 252" d="M644.957,195.789a2.7,2.7,0,0,1,.451.295,2.8,2.8,0,0,1,1.074,2.211v24.013h.609V198.3a3.4,3.4,0,0,0-1.3-2.688,3.293,3.293,0,0,0-.549-.358,3.393,3.393,0,0,0-1.584-.388H612.537v.609h31.117a2.791,2.791,0,0,1,1.3.319Z" transform="translate(-503.394 -177.2)" fill="#3f3d56"/>
    <path id="Path_253" data-name="Path 253" d="M834.99,486.821l-26.3,1.318-1.827,8.829v7.864l-1.121,29.281,7.819,22.831h6.269l-.636-2.892h0a3.018,3.018,0,0,0,.1-3.356l-.5-.8-.819-3.451-1.827-12.787,7.823-28.822,1.006,52.568h6.81l1-1.141a3.827,3.827,0,0,0,.3-4.648h0v-1.275l-.8-4.506,7.505-55.929Z" transform="translate(-637.776 -380.274)" fill="#2f2e41"/>
    <path id="Path_254" data-name="Path 254" d="M819.9,306.8l-8.581.439-.975,4.067-6.231,4.769a9.513,9.513,0,0,0-3.553,9.39l3.454,17.571-.225,11,.5,4.5-.038.682-.763.624a2.953,2.953,0,0,0-.769,3.609h0s-3.76,8.129,1.681,8.543,8.806-5.244,14-3.044,9.839,2.457,11.264,0,5.761-1.884,6.282-4.031-2.118-4.576-2.473-7.776-1.268-18.117-1.268-18.117l2.554-14.646a9.7,9.7,0,0,0-5.311-10.39l-8.178-3.981Z" transform="translate(-634.047 -255.056)" fill="#e6e6e6"/>
    <path id="Path_255" data-name="Path 255" d="M717.035,439.383a3.151,3.151,0,0,1,4.105-1.569,3.025,3.025,0,0,1,.437.242l8.817-6.566,4.906,3.3-13.051,7.688a3.142,3.142,0,0,1-3.718.946A3.007,3.007,0,0,1,717,439.458Q717.017,439.42,717.035,439.383Z" transform="translate(-575.874 -341.788)" fill="#a0616a"/>
    <path id="Path_256" data-name="Path 256" d="M763.788,343.683s-11.43,20.811-15.855,26.933l-3.36,2.624.3,8.578,7.508-4.143S767.536,366.2,767.1,361.42,763.788,343.683,763.788,343.683Z" transform="translate(-595.232 -280.713)" fill="#e6e6e6"/>
    <circle id="Ellipse_12" data-name="Ellipse 12" cx="8.108" cy="8.108" r="8.108" transform="translate(172.723 34.836)" fill="#a0616a"/>
    <path id="Path_257" data-name="Path 257" d="M827.961,260.754c-2.327-.076-2.538-.691-4.865-.767-.741-.024-1.615-.126-1.973-.775a1.71,1.71,0,0,1,.087-1.522,13.9,13.9,0,0,0,.717-1.41,2.463,2.463,0,0,0-2.44-3.247c-.708.031-1.373.364-2.079.424-.968.083-3.11-3.114-2.664-3.977.434-.841,1.307-1.475,1.445-2.411a9.29,9.29,0,0,0-.2-1.838c-.051-.916,2.271,1.149,1.846.336-1.043-1.994,8.787-4.467,10.406-1.969.6.934,1.683.87,2.644,1.431a8.6,8.6,0,0,1,2.581,2.425,6.153,6.153,0,0,1,.461,2.546c.014,4.053-.6,7.782-3.873,10.178" transform="translate(-643.998 -210.367)" fill="#2f2e41"/>
    <path id="Path_258" data-name="Path 258" d="M683.381,706.592a14.819,14.819,0,0,1-11.952-4.459,30.874,30.874,0,0,1-4.715-7.471c-.388-.766-.788-1.559-1.2-2.318a4.729,4.729,0,0,1,.491-5.277,4.65,4.65,0,0,1,4.963-1.586l.194.056,1.749,6.824c.261-1.018.821-3.311,1.174-5.558l.03-.188.174.078a23.789,23.789,0,0,1,5.111,3.08,24.517,24.517,0,0,1,9.168,18.463l0,.212Z" transform="translate(-539.839 -518.322)" fill="#f2f2f2"/>
    <path id="Path_259" data-name="Path 259" d="M750.059,761.188l-84.864.094a.363.363,0,0,1,0-.725l84.864-.094a.362.362,0,1,1,0,.725Z" transform="translate(-539.768 -570.607)" fill="#cacaca"/>
    <path id="Path_260" data-name="Path 260" d="M395.291,523.033a7.965,7.965,0,1,1,7.965-7.965A7.965,7.965,0,0,1,395.291,523.033Z" transform="translate(-346.746 -394.381)" fill="#e6e6e6"/>
    <path id="Path_261" data-name="Path 261" d="M407.656,523.5H405.3v-2.357a.786.786,0,0,0-1.572,0V523.5H401.37a.786.786,0,0,0,0,1.572h2.357v2.357a.786.786,0,0,0,1.572,0v-2.357h2.357a.786.786,0,0,0,0-1.572Z" transform="translate(-355.969 -403.603)" fill="#fff"/>
    <path id="Path_262" data-name="Path 262" d="M471.838,523.033a7.965,7.965,0,1,1,7.965-7.965A7.965,7.965,0,0,1,471.838,523.033Z" transform="translate(-399.989 -394.381)" fill="#e6e6e6"/>
    <path id="Path_263" data-name="Path 263" d="M484.2,530.685h-6.286a.786.786,0,1,0,0,1.571H484.2a.786.786,0,1,0,0-1.571Z" transform="translate(-409.212 -410.784)" fill="#fff"/>
    <path id="Path_264" data-name="Path 264" d="M548.386,523.033a7.965,7.965,0,1,1,7.965-7.965A7.965,7.965,0,0,1,548.386,523.033Z" transform="translate(-453.232 -394.381)" fill="#e6e6e6"/>
    <path id="Path_265" data-name="Path 265" d="M562.089,523.827l-2.258-3.3a.67.67,0,1,0-1.1.757l1.46,2.132h-5.722a.786.786,0,0,0,0,1.571h5.793l-1.532,2.237a.67.67,0,1,0,1.1.757l2.258-3.3A.884.884,0,0,0,562.089,523.827Z" transform="translate(-462.455 -403.519)" fill="#fff"/>
    <circle id="Ellipse_13" data-name="Ellipse 13" cx="8.457" cy="8.457" r="8.457" transform="translate(63.391 0)" fill="#6c63ff"/>
    <path id="Path_266" data-name="Path 266" d="M478.826,158.973a.94.94,0,0,1-.753-.376l-2.307-3.077a.941.941,0,1,1,1.505-1.129l1.51,2.013,3.877-5.815a.941.941,0,0,1,1.566,1.044l-4.615,6.922a.941.941,0,0,1-.757.419Z" transform="translate(-408.131 -146.114)" fill="#fff"/>
  </g>
</svg>
